<svg width="67" height="61" viewBox="0 0 67 61" fill="none" xmlns="http://www.w3.org/2000/svg">
<path opacity="0.5" d="M66.2033 0.410504L50.5243 55.9541C50.4445 56.2062 50.1257 56.2819 49.9396 56.1054L39.4427 46.1464L47.3087 18.3115C47.3885 18.0594 47.1493 17.8325 46.8836 17.9081L17.5452 25.3711L7.10138 15.4625C6.91536 15.286 6.99508 14.9834 7.26083 14.9078L65.7781 0.00710022C66.0438 -0.0433252 66.283 0.183589 66.2033 0.410504Z" fill="#00B37E"/>
<path opacity="0.5" d="M37.3058 46.1459L33.2665 60.5171C33.1868 60.7693 32.8679 60.8449 32.6818 60.6684L0.101381 29.7828C-0.0846408 29.6063 -0.00491742 29.3038 0.260829 29.2282L15.4084 25.3706L37.3058 46.1459Z" fill="#00B37E"/>
<path d="M45.1711 18.311L37.305 46.1459L15.4076 25.3706L44.7459 17.9076C45.0117 17.832 45.2508 18.0589 45.1711 18.311Z" fill="#00B37E"/>
</svg>
